<?xml version="1.0" encoding="utf-8"?>
<!-- Generator: Adobe Illustrator 21.1.0, SVG Export Plug-In . SVG Version: 6.00 Build 0)  -->
<svg version="1.1" id="Layer_1" xmlns="http://www.w3.org/2000/svg" xmlns:xlink="http://www.w3.org/1999/xlink" x="0px" y="0px"
	 viewBox="0 0 64 64" style="enable-background:new 0 0 64 64;" xml:space="preserve">
<style type="text/css">
	.st0{fill:#FFFFFF;}
	.st1{fill:#ACBDC5;}
	.st2{fill:#597380;}
	.st3{fill-rule:evenodd;clip-rule:evenodd;fill:#314A52;}
</style>
<g id="Computer">
	<rect x="3" y="40" class="st0" width="58" height="9"/>
	<path class="st1" d="M3,7h58v33H4v3c0,2.8,2.2,5,5,5h29v9H26v-5H9c-5,0-9-4-9-9v-3l3-4V7z"/>
	<path class="st2" d="M0,12c0-4.4,3.6-8,8-8h16v4H8c-2.2,0-4,1.8-4,4v12c0,4.4,9,8,20,8c19.9,0,36-7.2,36-16h1v24H0V12z M20,60h24
		v-4H26.9c0.7-1.2,1.1-2.5,1.1-4h-4c0,2.2-1.8,4-4,4V60z"/>
	<path class="st3" d="M16,4h40c4.4,0,8,3.6,8,8v32c0,4.4-3.6,8-8,8H40c0,2.2,1.8,4,4,4v4c-4.4,0-8-3.6-8-8v-4h20c2.2,0,4-1.8,4-4V12
		c0-2.2-1.8-4-4-4H16V4z"/>
</g>
</svg>
